<svg width="48" height="48" viewBox="0 0 48 48" fill="none" xmlns="http://www.w3.org/2000/svg">
<path d="M17.1764 16.4719L22.3724 6.00788C22.5237 5.70505 22.7563 5.45035 23.0442 5.27232C23.3321 5.0943 23.6639 5 24.0024 5C24.3409 5 24.6727 5.0943 24.9606 5.27232C25.2486 5.45035 25.4812 5.70505 25.6324 6.00788L30.8284 16.4719L42.4444 18.1599C42.7795 18.2063 43.0947 18.3461 43.3542 18.5631C43.6136 18.7801 43.8068 19.0658 43.9117 19.3873C44.0166 19.7089 44.029 20.0535 43.9474 20.3818C43.8659 20.7101 43.6936 21.0088 43.4504 21.2439L35.0464 29.3839L37.0304 40.8839C37.2844 42.3599 35.7244 43.4839 34.3904 42.7879L24.0024 37.3559L13.6124 42.7879C12.2804 43.4859 10.7204 42.3599 10.9744 40.8819L12.9584 29.3819L4.55443 21.2419C4.3124 21.0066 4.14123 20.7082 4.06036 20.3805C3.97949 20.0528 3.99217 19.709 4.09697 19.3882C4.20176 19.0673 4.39446 18.7823 4.65317 18.5655C4.91187 18.3488 5.2262 18.2089 5.56043 18.1619L17.1764 16.4719Z" fill="#89919A" stroke="#89919A" stroke-width="1.5" stroke-linecap="round" stroke-linejoin="round"/>
</svg>
