<svg width="42" height="40" viewBox="0 0 42 40" fill="none" xmlns="http://www.w3.org/2000/svg">
    <defs>
        <clipPath id="halfFill">
            <rect x="0" y="0" width="21" height="40" fill="white"/>
        </clipPath>
    </defs>

    <path d="M14.1764 12.4719L19.3724 2.00788C19.5237 1.70505 19.7563 1.45035 20.0442 1.27232C20.3321 1.0943 20.6639 1 21.0024 1C21.3409 1 21.6727 1.0943 21.9606 1.27232C22.2486 1.45035 22.4812 1.70505 22.6324 2.00788L27.8284 12.4719L39.4444 14.1599C39.7795 14.2063 40.0947 14.3461 40.3542 14.5631C40.6136 14.7801 40.8068 15.0658 40.9117 15.3873C41.0166 15.7089 41.029 16.0535 40.9474 16.3818C40.8659 16.7101 40.6936 17.0088 40.4504 17.2439L32.0464 25.3839L34.0304 36.8839C34.2844 38.3599 32.7244 39.4839 31.3904 38.7879L21.0024 33.3559L10.6124 38.7879C9.28043 39.4859 7.72043 38.3599 7.97443 36.8819L9.95843 25.3819L1.55443 17.2419C1.3124 17.0066 1.14123 16.7082 1.06036 16.3805C0.979489 16.0528 0.992173 15.709 1.09697 15.3882C1.20176 15.0673 1.39446 14.7823 1.65317 14.5655C1.91187 14.3488 2.2262 14.2089 2.56043 14.1619L14.1764 12.4719Z" fill="#D6B346" clip-path="url(#halfFill)"/>

    <path d="M14.1764 12.4719L19.3724 2.00788C19.5237 1.70505 19.7563 1.45035 20.0442 1.27232C20.3321 1.0943 20.6639 1 21.0024 1C21.3409 1 21.6727 1.0943 21.9606 1.27232C22.2486 1.45035 22.4812 1.70505 22.6324 2.00788L27.8284 12.4719L39.4444 14.1599C39.7795 14.2063 40.0947 14.3461 40.3542 14.5631C40.6136 14.7801 40.8068 15.0658 40.9117 15.3873C41.0166 15.7089 41.029 16.0535 40.9474 16.3818C40.8659 16.7101 40.6936 17.0088 40.4504 17.2439L32.0464 25.3839L34.0304 36.8839C34.2844 38.3599 32.7244 39.4839 31.3904 38.7879L21.0024 33.3559L10.6124 38.7879C9.28043 39.4859 7.72043 38.3599 7.97443 36.8819L9.95843 25.3819L1.55443 17.2419C1.3124 17.0066 1.14123 16.7082 1.06036 16.3805C0.979489 16.0528 0.992173 15.709 1.09697 15.3882C1.20176 15.0673 1.39446 14.7823 1.65317 14.5655C1.91187 14.3488 2.2262 14.2089 2.56043 14.1619L14.1764 12.4719Z" fill="none" stroke="#D6B346" stroke-width="2.5"/>
</svg>
