<svg width="25" height="24" viewBox="0 0 25 24" fill="none" xmlns="http://www.w3.org/2000/svg">
<path d="M15.925 16.7L17.325 15.3L13.625 11.6V7H11.625V12.4L15.925 16.7ZM12.625 22C11.2417 22 9.94167 21.7375 8.725 21.2125C7.50833 20.6875 6.45 19.975 5.55 19.075C4.65 18.175 3.9375 17.1167 3.4125 15.9C2.8875 14.6833 2.625 13.3833 2.625 12C2.625 10.6167 2.8875 9.31667 3.4125 8.1C3.9375 6.88333 4.65 5.825 5.55 4.925C6.45 4.025 7.50833 3.3125 8.725 2.7875C9.94167 2.2625 11.2417 2 12.625 2C14.0083 2 15.3083 2.2625 16.525 2.7875C17.7417 3.3125 18.8 4.025 19.7 4.925C20.6 5.825 21.3125 6.88333 21.8375 8.1C22.3625 9.31667 22.625 10.6167 22.625 12C22.625 13.3833 22.3625 14.6833 21.8375 15.9C21.3125 17.1167 20.6 18.175 19.7 19.075C18.8 19.975 17.7417 20.6875 16.525 21.2125C15.3083 21.7375 14.0083 22 12.625 22ZM12.625 20C14.8417 20 16.7292 19.2208 18.2875 17.6625C19.8458 16.1042 20.625 14.2167 20.625 12C20.625 9.78333 19.8458 7.89583 18.2875 6.3375C16.7292 4.77917 14.8417 4 12.625 4C10.4083 4 8.52083 4.77917 6.9625 6.3375C5.40417 7.89583 4.625 9.78333 4.625 12C4.625 14.2167 5.40417 16.1042 6.9625 17.6625C8.52083 19.2208 10.4083 20 12.625 20Z" fill="#FAFAFA"/>
</svg>
