<svg width="24" height="24" viewBox="0 0 24 24" fill="none" xmlns="http://www.w3.org/2000/svg">
<g clip-path="url(#clip0_40_2903)">
<path fill-rule="evenodd" clip-rule="evenodd" d="M23.3777 2.05437C24.1075 2.65749 24.2103 3.73804 23.6071 4.46786L9.82428 21.1466L9.82013 21.1515C9.50662 21.528 9.11316 21.8299 8.66835 22.0351C8.22353 22.2405 7.73856 22.344 7.2487 22.3383C6.75082 22.3322 6.25927 22.2132 5.81391 21.9905C5.37005 21.7687 4.98204 21.4493 4.6788 21.0566L0.361067 15.5052C-0.220195 14.7579 -0.0855656 13.6808 0.661772 13.0996C1.40911 12.5183 2.48616 12.653 3.06742 13.4003L7.29069 18.8302L20.9642 2.28381C21.5672 1.55399 22.6479 1.45126 23.3777 2.05437Z" fill="black"/>
</g>
<defs>
<clipPath id="clip0_40_2903">
<rect width="24" height="24" fill="white"/>
</clipPath>
</defs>
</svg>
