<svg width="34" height="34" viewBox="0 0 34 34" fill="none" xmlns="http://www.w3.org/2000/svg">
<rect width="34" height="34" rx="17" fill="#5E0909"/>
<g opacity="0.2">
<path d="M18.0622 8.28243C17.781 8.00153 17.3997 7.84375 17.0022 7.84375C16.6047 7.84375 16.2235 8.00153 15.9422 8.28243L10.2832 13.9384C10.0018 14.2198 9.84375 14.6015 9.84375 14.9994C9.84375 15.3974 10.0018 15.779 10.2832 16.0604C10.5646 16.3418 10.9463 16.4999 11.3442 16.4999C11.7422 16.4999 12.1238 16.3418 12.4052 16.0604L15.5022 12.9644V24.4994C15.5022 24.8973 15.6603 25.2788 15.9416 25.5601C16.2229 25.8414 16.6044 25.9994 17.0022 25.9994C17.4001 25.9994 17.7816 25.8414 18.0629 25.5601C18.3442 25.2788 18.5022 24.8973 18.5022 24.4994V12.9644L21.5982 16.0604C21.7376 16.1998 21.903 16.3103 22.085 16.3857C22.2671 16.4611 22.4622 16.4999 22.6592 16.4999C22.8563 16.4999 23.0514 16.4611 23.2334 16.3857C23.4155 16.3103 23.5809 16.1998 23.7202 16.0604C23.8596 15.9211 23.9701 15.7557 24.0455 15.5736C24.1209 15.3916 24.1597 15.1965 24.1597 14.9994C24.1597 14.8024 24.1209 14.6073 24.0455 14.4252C23.9701 14.2432 23.8596 14.0778 23.7202 13.9384L18.0622 8.28243Z" fill="#D6B346"/>
</g>
</svg>
