<svg width="23" height="22" viewBox="0 0 23 22" fill="none" xmlns="http://www.w3.org/2000/svg">
<path d="M11.2405 0.603516C5.01808 0.603516 0 4.61794 0 9.49149C0 12.6549 2.08752 15.4249 5.2188 17.0066L4.15898 20.9649C4.139 21.0242 4.13593 21.0879 4.15011 21.1488C4.16429 21.2098 4.19516 21.2656 4.23927 21.3101C4.30359 21.3668 4.38635 21.3982 4.47211 21.3984C4.54322 21.3927 4.61068 21.3646 4.6648 21.3181L9.22524 18.243C9.89841 18.336 10.577 18.3842 11.2566 18.3875C17.4709 18.3875 22.4971 14.3731 22.4971 9.49149C22.4971 4.60991 17.4549 0.603516 11.2405 0.603516Z" fill="#392020"/>
<path d="M3.9366 8.08592H2.70817C2.55592 8.09033 2.40554 8.05134 2.27461 7.9735C2.21648 7.93708 2.1665 7.88901 2.12782 7.83237C2.08913 7.77572 2.06257 7.71168 2.0498 7.64429C2.0459 7.60155 2.0459 7.55863 2.0498 7.51589C2.04598 7.43594 2.06151 7.35619 2.09505 7.28351C2.1286 7.21083 2.17917 7.14734 2.24249 7.09837C2.38247 6.997 2.55142 6.94345 2.72423 6.94577H6.42556C6.57903 6.94038 6.73043 6.98245 6.85913 7.06623C6.91863 7.10104 6.96966 7.14867 7.00854 7.2056C7.04741 7.26252 7.07316 7.32735 7.08394 7.39544C7.08785 7.43549 7.08785 7.47584 7.08394 7.51589C7.08772 7.597 7.07224 7.67783 7.03874 7.7518C7.00525 7.82577 6.9547 7.89069 6.89124 7.94135C6.75468 8.0426 6.58736 8.09369 6.41753 8.08592H5.22926V12.3091C5.23408 12.3991 5.22016 12.4891 5.18837 12.5734C5.15658 12.6577 5.10762 12.7345 5.04459 12.7989C4.98415 12.8605 4.9115 12.9087 4.83129 12.9405C4.75109 12.9723 4.66512 12.987 4.57891 12.9835C4.42812 12.9878 4.28053 12.9397 4.16141 12.8471C4.04799 12.7567 3.97102 12.6284 3.94463 12.4858C3.93669 12.4271 3.93669 12.3678 3.94463 12.3091L3.9366 8.08592Z" fill="#FEE500"/>
<path d="M7.43361 7.26006C7.46892 7.12794 7.55185 7.01352 7.66645 6.93888C7.78855 6.86968 7.92768 6.83629 8.06789 6.84254H8.37299C8.52177 6.83721 8.6691 6.87335 8.79852 6.94692C8.93567 7.03914 9.03312 7.17957 9.07151 7.34033L10.6773 11.8767C10.7189 11.995 10.7538 12.1157 10.7817 12.2381C10.7844 12.2889 10.7844 12.3397 10.7817 12.3906C10.7844 12.4688 10.77 12.5467 10.7395 12.6188C10.709 12.6909 10.6631 12.7555 10.605 12.8081C10.5488 12.8657 10.4812 12.9112 10.4067 12.9416C10.3321 12.972 10.252 12.9866 10.1715 12.9847C10.0476 12.997 9.92326 12.9673 9.81839 12.9003C9.71352 12.8333 9.63425 12.7329 9.59338 12.6154L9.25617 11.6278H7.14456L6.80735 12.6154C6.76747 12.7353 6.68725 12.8376 6.58037 12.9049C6.4735 12.9723 6.34658 13.0004 6.22124 12.9847C6.08547 12.9882 5.95248 12.9458 5.84388 12.8642C5.73806 12.7801 5.66667 12.6602 5.64315 12.5271C5.63889 12.4817 5.63889 12.436 5.64315 12.3906C5.62937 12.3109 5.62937 12.2294 5.64315 12.1497C5.64315 12.0614 5.69936 11.965 5.73147 11.8767L7.43361 7.26006ZM8.2365 8.31189L7.47375 10.7206H8.99121L8.2365 8.31189Z" fill="#FEE500"/>
<path d="M10.9694 7.51697C10.9613 7.33678 11.0248 7.16071 11.1461 7.02721C11.2077 6.96502 11.2818 6.91642 11.3634 6.88461C11.4449 6.8528 11.5323 6.83841 11.6198 6.84247C11.7702 6.84071 11.917 6.88873 12.0373 6.97899C12.1488 7.07317 12.2229 7.20418 12.246 7.34829C12.254 7.40422 12.254 7.46104 12.246 7.51697V11.7402H14.454C14.607 11.7382 14.7575 11.7799 14.8876 11.8605C14.946 11.8966 14.9962 11.9446 15.035 12.0013C15.0737 12.058 15.1001 12.1222 15.1124 12.1898C15.1124 12.1898 15.1124 12.2701 15.1124 12.3102C15.1162 12.3902 15.1007 12.4698 15.0671 12.5425C15.0336 12.6152 14.983 12.6788 14.9197 12.7277C14.7797 12.8291 14.6108 12.8826 14.4379 12.8802H11.7242C11.5513 12.8914 11.3795 12.8464 11.2344 12.7518C11.1046 12.6548 11.0181 12.5106 10.9935 12.3504C10.9877 12.2622 10.9877 12.1736 10.9935 12.0854L10.9694 7.51697Z" fill="#FEE500"/>
<path d="M15.2572 7.5164C15.2524 7.33674 15.3155 7.16188 15.4339 7.02664C15.5542 6.9173 15.7086 6.85273 15.8709 6.84395C16.0333 6.83518 16.1937 6.88268 16.3251 6.97842C16.4391 7.07177 16.5159 7.20272 16.5419 7.34772C16.5458 7.40385 16.5458 7.46026 16.5419 7.5164V9.48344L18.5732 7.13896C18.6515 7.05898 18.7346 6.98397 18.8221 6.91423C18.9046 6.86512 18.9991 6.84002 19.0951 6.8419C19.2354 6.84113 19.3726 6.88316 19.4885 6.96235C19.5431 6.99911 19.5897 7.04654 19.6256 7.10172C19.6614 7.1569 19.6858 7.21871 19.6972 7.28353C19.7005 7.29942 19.7005 7.31585 19.6972 7.33175C19.6933 7.35028 19.6933 7.36937 19.6972 7.38791C19.697 7.47239 19.6748 7.55541 19.633 7.62881C19.5904 7.70654 19.5392 7.77917 19.4805 7.84551L18.1477 9.30683L19.7534 11.7958V11.876C19.8368 11.9911 19.9018 12.1185 19.9461 12.2535V12.2936C19.9554 12.3866 19.942 12.4805 19.9071 12.5672C19.8721 12.6539 19.8166 12.7308 19.7454 12.7914C19.6115 12.8926 19.4476 12.9463 19.2797 12.944C19.1682 12.9486 19.0574 12.9236 18.9586 12.8716C18.8516 12.7999 18.7635 12.7036 18.7017 12.5906L17.2083 10.182L16.4937 10.9287V12.2695C16.4985 12.4491 16.4354 12.624 16.3171 12.7592C16.2536 12.8212 16.1781 12.8697 16.0953 12.9014C16.0124 12.9332 15.924 12.9477 15.8353 12.944C15.6872 12.9471 15.5425 12.8988 15.4259 12.8074C15.3124 12.717 15.2355 12.5888 15.2091 12.4462C15.2011 12.3876 15.2011 12.3281 15.2091 12.2695L15.2572 7.5164Z" fill="#FEE500"/>
</svg>
