<svg width="60" height="60" viewBox="0 0 60 60" fill="none" xmlns="http://www.w3.org/2000/svg">
<g clip-path="url(#clip0_460_5548)">
<path d="M58.6326 10.8516L58.6325 10.8517L24.1772 52.5466L24.1756 52.5485L24.1668 52.559L24.1664 52.5594C23.4302 53.4435 22.5062 54.1524 21.4617 54.6343L21.4616 54.6343C20.4172 55.1165 19.2785 55.3597 18.1283 55.3465C16.9589 55.332 15.8044 55.0525 14.7587 54.5296L14.7586 54.5296C13.7164 54.0087 12.8052 53.2588 12.0931 52.3364L12.092 52.335L1.29765 38.4566C0.01403 36.8063 0.311334 34.4278 1.96171 33.1442C3.61208 31.8606 5.99056 32.1579 7.27419 33.8082L17.8323 47.3831L18.2152 47.8753L18.6124 47.3946L52.7961 6.02857L52.4107 5.71007L52.7961 6.02857C54.1279 4.41689 56.5145 4.19005 58.126 5.52188C59.7377 6.85381 59.9647 9.24001 58.6326 10.8516Z" fill="#FAFAFA" stroke="#D6B346"/>
</g>
<defs>
<clipPath id="clip0_460_5548">
<rect width="60" height="60" fill="white"/>
</clipPath>
</defs>
</svg>
